<?xml version="1.0" ?><svg height="512" id="Слой_1" version="1.0" viewBox="0 0 511.99999 512" width="512" xml:space="preserve" xmlns="http://www.w3.org/2000/svg" xmlns:cc="http://creativecommons.org/ns#" xmlns:dc="http://purl.org/dc/elements/1.1/" xmlns:inkscape="http://www.inkscape.org/namespaces/inkscape" xmlns:rdf="http://www.w3.org/1999/02/22-rdf-syntax-ns#" xmlns:sodipodi="http://sodipodi.sourceforge.net/DTD/sodipodi-0.dtd" xmlns:svg="http://www.w3.org/2000/svg" xmlns:xlink="http://www.w3.org/1999/xlink"><defs id="defs7"><linearGradient gradientUnits="userSpaceOnUse" id="SVGID_1_-8-1" x1="256.00049" x2="256.00049" y1="512" y2="0.00048828131"><stop id="stop4-8-7" offset="0" style="stop-color:#0c80b1;stop-opacity:1"/><stop id="stop6-2-4" offset="1" style="stop-color:#11a7df;stop-opacity:1"/></linearGradient><linearGradient gradientUnits="userSpaceOnUse" id="path130_1_-6" x1="255.25" x2="255.25" y1="90.894501" y2="421.58151"><stop id="stop6-1" offset="0" style="stop-color:#e84d4d;stop-opacity:1"/><stop id="stop8-4" offset="1" style="stop-color:#b82626;stop-opacity:1"/></linearGradient><linearGradient gradientUnits="userSpaceOnUse" id="path132_1_-2" x1="254.4995" x2="254.4995" y1="57" y2="455.00049"><stop id="stop12-3" offset="0" style="stop-color:#e84d4d;stop-opacity:1"/><stop id="stop14-2" offset="1" style="stop-color:#b82626;stop-opacity:1"/></linearGradient><linearGradient gradientUnits="userSpaceOnUse" id="linearGradient3498" x1="254.4995" x2="254.4995" xlink:href="#path132_1_-2" y1="57" y2="455.00049"/><linearGradient gradientUnits="userSpaceOnUse" id="linearGradient3814" x1="244.94745" x2="243.96371" xlink:href="#linearGradient3030" y1="13.083559" y2="246.75974"/><linearGradient gradientUnits="userSpaceOnUse" id="linearGradient3816" x1="255.25" x2="255.25" xlink:href="#path130_1_-6" y1="90.894501" y2="421.58151"/><linearGradient gradientUnits="userSpaceOnUse" id="linearGradient3818" x1="254.4995" x2="254.4995" xlink:href="#path132_1_-2" y1="57" y2="455.00049"/><linearGradient gradientUnits="userSpaceOnUse" id="linearGradient3023" x1="255.25" x2="255.25" y1="90.894501" y2="421.58151"><stop id="stop3025" offset="0" style="stop-color:#e84d4d;stop-opacity:1"/><stop id="stop3027" offset="1" style="stop-color:#b82626;stop-opacity:1"/></linearGradient><linearGradient gradientUnits="userSpaceOnUse" id="linearGradient3030" x1="254.4995" x2="254.4995" y1="57" y2="455.00049"><stop id="stop3032" offset="0" style="stop-color:#e84d4d;stop-opacity:1"/><stop id="stop3034" offset="1" style="stop-color:#b82626;stop-opacity:1"/></linearGradient><linearGradient gradientTransform="translate(146.10543,-503.32203)" gradientUnits="userSpaceOnUse" id="linearGradient3827" x1="254.4995" x2="254.4995" xlink:href="#path132_1_-2" y1="57" y2="455.00049"/><linearGradient gradientTransform="translate(146.10543,-503.32203)" gradientUnits="userSpaceOnUse" id="linearGradient3830" x1="255.25" x2="255.25" xlink:href="#path130_1_-6" y1="90.894501" y2="421.58151"/><linearGradient gradientUnits="userSpaceOnUse" id="linearGradient3838" x1="0" x2="512" xlink:href="#linearGradient3023" y1="256" y2="256"/><linearGradient gradientUnits="userSpaceOnUse" id="linearGradient3840" x1="0" x2="512" xlink:href="#linearGradient3023" y1="256" y2="256"/><linearGradient gradientUnits="userSpaceOnUse" id="linearGradient3842" x1="0" x2="512" xlink:href="#linearGradient3023" y1="256" y2="256"/><linearGradient gradientUnits="userSpaceOnUse" id="linearGradient3857" x1="244.94745" x2="243.96371" xlink:href="#linearGradient3030" y1="13.083559" y2="246.75974"/><linearGradient gradientUnits="userSpaceOnUse" id="linearGradient3859" x1="244.94745" x2="243.96371" xlink:href="#linearGradient3030" y1="13.083559" y2="246.75974"/><linearGradient gradientUnits="userSpaceOnUse" id="linearGradient3865" x1="244.94745" x2="243.96371" xlink:href="#linearGradient3030" y1="13.083559" y2="246.75974"/><linearGradient gradientUnits="userSpaceOnUse" id="linearGradient3867" x1="244.94745" x2="243.96371" xlink:href="#linearGradient3030" y1="13.083559" y2="246.75974"/><linearGradient gradientUnits="userSpaceOnUse" id="linearGradient3872" x1="244.94745" x2="243.96371" xlink:href="#linearGradient3030" y1="13.083559" y2="246.75974"/><linearGradient gradientUnits="userSpaceOnUse" id="linearGradient3874" x1="244.94745" x2="243.96371" xlink:href="#linearGradient3030" y1="13.083559" y2="246.75974"/><linearGradient gradientTransform="matrix(2.2189189,0,0,2.2189189,-27.172888,-33.370323)" gradientUnits="userSpaceOnUse" id="linearGradient3877" x1="244.94745" x2="243.96371" xlink:href="#linearGradient3030" y1="13.083559" y2="246.75974"/><linearGradient gradientTransform="matrix(2.2189189,0,0,2.2189189,-27.172883,-33.370323)" gradientUnits="userSpaceOnUse" id="linearGradient3883" x1="244.94745" x2="243.96371" xlink:href="#linearGradient3030" y1="13.083559" y2="246.75974"/></defs><g id="g3886"><g id="g3044" style="fill:url(#linearGradient3838);fill-opacity:1" transform="matrix(0,1,-1,0,512,0)"><path d="M 73.125,-9.273985e-7 C 32.73606,-9.273985e-7 0,32.767309 0,73.156249 L 0,438.875 C 0,479.26394 32.73606,512 73.125,512 l 365.7188,0 C 479.2326,512.009 512,479.26394 512,438.875 L 512,73.156249 C 512,32.758779 479.2326,-9.273985e-7 438.8438,-9.273985e-7 l -365.7188,0 z" id="path5" style="fill:url(#linearGradient3840);fill-opacity:1"/><path d="m 129,149.08056 c 50,-3.212 94.448,-14.875 91.195,-98.874999 H 265 v 98.999999 h 118 v 78 H 265 v 114.978 c 13,76.784 90,50.163 118,23.015 0,0 0,65.219 0,65.22 -17,13.377 -43.053,22.979 -63.807,27.778 -20.145,4.657 -41.209,4.716 -61.454,0.624 -30.249,-6.112 -60.247,-20.486 -74.428,-49.315 -9.508,-19.332 -15.311,-45.798 -15.311,-67.322 0,-0.01 0,-114.978 0,-114.978 h -39 v -78.125 z" id="path26453_1_" style="fill:url(#linearGradient3842);fill-opacity:1"/></g><path d="m 258.40317,42.377198 c -7.22765,0.04722 -14.49752,0.4941 -21.8125,1.3125 C 170.62222,51.076479 107.28289,106.90032 94.590673,158.34595 83.365163,203.87817 87.491821,273.15265 149.18442,289.40845 170.49935,253.5485 141.9416,242.62072 138.27817,215.6897 118.1792,68.326857 349.27475,33.157207 362.18442,169.28345 c 5.52511,58.3154 -18.99462,132.65538 -68.28125,139.25 -25.63961,3.44598 -43.95732,-7.90952 -49.15625,-24.5625 -13.86159,-44.4738 54.0268,-116.46518 4.69332,-145.25423 -44.92609,-16.57994 -53.82425,51.06746 -56.53705,104.28548 -0.98076,70.31532 -57.57488,160.45018 -30.0625,226.625 38.54262,-32.47166 51.74954,-90.23155 65.53125,-147.4375 15.39486,17.68035 35.19286,29.52515 60.0625,30 88.88989,1.70191 135.90938,-80.31129 133.8125,-169.25 C 420.12976,94.258283 343.68949,41.820043 258.40317,42.377198 z" id="path3" style="fill:#ffffff;fill-opacity:1;fill-rule:evenodd"/></g></svg>