<?xml version="1.0" ?><svg enable-background="new 0 0 30 30" height="512" id="Layer_1" version="1.1" viewBox="0 0 512 512" width="512" xml:space="preserve" xmlns="http://www.w3.org/2000/svg" xmlns:cc="http://creativecommons.org/ns#" xmlns:dc="http://purl.org/dc/elements/1.1/" xmlns:inkscape="http://www.inkscape.org/namespaces/inkscape" xmlns:rdf="http://www.w3.org/1999/02/22-rdf-syntax-ns#" xmlns:sodipodi="http://sodipodi.sourceforge.net/DTD/sodipodi-0.dtd" xmlns:svg="http://www.w3.org/2000/svg" xmlns:xlink="http://www.w3.org/1999/xlink"><defs id="defs15"><linearGradient id="linearGradient3800"><stop id="stop3802" offset="0" style="stop-color:#000000;stop-opacity:1;"/><stop id="stop3804" offset="1" style="stop-color:#000000;stop-opacity:0;"/></linearGradient><linearGradient id="linearGradient3792"><stop id="stop3794" offset="0" style="stop-color:#5e7cba;stop-opacity:1;"/><stop id="stop3796" offset="1" style="stop-color:#4369b2;stop-opacity:1"/></linearGradient><linearGradient gradientTransform="translate(2245.382,-1821.714)" gradientUnits="userSpaceOnUse" id="linearGradient3006" x1="256.00049" x2="256.00049" xlink:href="#SVGID_1_-8" y1="512" y2="0.00048828131"/><linearGradient gradientUnits="userSpaceOnUse" id="SVGID_1_-8" x1="256.00049" x2="256.00049" y1="512" y2="0.00048828131"><stop id="stop4-8" offset="0" style="stop-color:#0c80b1;stop-opacity:1"/><stop id="stop6-2" offset="1" style="stop-color:#11a7df;stop-opacity:1"/></linearGradient><linearGradient gradientTransform="translate(-687.56745,-442.7963)" gradientUnits="userSpaceOnUse" id="linearGradient3194" x1="256.00049" x2="256.00049" xlink:href="#SVGID_1_-8" y1="512" y2="0.00048828131"/><linearGradient gradientUnits="userSpaceOnUse" id="linearGradient3773" x1="514.45129" x2="513.42902" xlink:href="#SVGID_1_-8" y1="513.22565" y2="-1.2256323"/><linearGradient gradientUnits="userSpaceOnUse" id="linearGradient3798" x1="-873.12775" x2="-598.12775" xlink:href="#linearGradient3792" y1="-405.51376" y2="-405.51376"/><linearGradient gradientUnits="userSpaceOnUse" id="linearGradient3806" x1="0" x2="512" xlink:href="#linearGradient3800" y1="256" y2="256"/><linearGradient gradientUnits="userSpaceOnUse" id="linearGradient3812" x1="0" x2="512" xlink:href="#linearGradient3800" y1="256" y2="256"/><linearGradient gradientUnits="userSpaceOnUse" id="linearGradient3814" x1="0" x2="512" xlink:href="#linearGradient3800" y1="256" y2="256"/><linearGradient gradientUnits="userSpaceOnUse" id="linearGradient3817" x1="515.34363" x2="514.02094" xlink:href="#linearGradient3792" y1="-6.724206" y2="516.70325"/><linearGradient gradientTransform="translate(1635.9966,-2013.2351)" gradientUnits="userSpaceOnUse" id="linearGradient3006-1" x1="256.00049" x2="256.00049" xlink:href="#SVGID_1_-8-7" y1="512" y2="0.00048828131"/><linearGradient gradientUnits="userSpaceOnUse" id="SVGID_1_-8-7" x1="256.00049" x2="256.00049" y1="512" y2="0.00048828131"><stop id="stop4-8-4" offset="0" style="stop-color:#0c80b1;stop-opacity:1"/><stop id="stop6-2-0" offset="1" style="stop-color:#11a7df;stop-opacity:1"/></linearGradient><linearGradient gradientTransform="translate(67.352876,-1005.0762)" gradientUnits="userSpaceOnUse" id="linearGradient3174" x1="256.00049" x2="256.00049" xlink:href="#SVGID_1_-8-7" y1="512" y2="0.00048828131"/><linearGradient gradientUnits="userSpaceOnUse" id="linearGradient3831" x1="-1480.1777" x2="-1478.2496" xlink:href="#SVGID_1_-8-7" y1="-503.87509" y2="-792.8717"/><linearGradient gradientUnits="userSpaceOnUse" id="linearGradient3836" x1="-1480.1777" x2="-1478.2496" xlink:href="#SVGID_1_-8-7" y1="-503.87509" y2="-792.8717"/><linearGradient gradientTransform="matrix(1.7722165,0,0,1.7720948,2621.4044,1404.9792)" gradientUnits="userSpaceOnUse" id="linearGradient3010" x1="-1480.1777" x2="-1478.2496" xlink:href="#SVGID_1_-8-7" y1="-503.87509" y2="-792.8717"/></defs><rect height="340.10944" id="rect3838" style="fill:#ffffff;fill-opacity:1;stroke:none" width="308.67075" x="105.74831" y="77.574486"/><path d="m 310.9381,499.72056 c -7.81264,-3.87005 -8.3358,-3.89826 -25.69714,-1.3858 -32.22261,4.66307 -72.0888,0.55479 -106.61672,-10.98706 C 92.344058,458.50645 28.828705,382.90029 14.848752,292.39572 12.194681,275.21284 12.101462,236.2687 14.67862,221.06039 16.458811,210.55294 16.287969,209.40048 11.396652,198.9092 2.3408027,179.48541 -0.0557657,167.28161 9.452311e-4,140.88162 0.06120059,113.14332 2.4083241,102.76641 14.233616,77.972254 44.65194,21.724565 99.705668,-0.03950605 140.80585,8.2543988e-5 c 27.42009,0 41.26872,2.838647756012 60.2107,12.341896456012 7.88778,3.957318 8.31099,3.981312 25.7418,1.458841 42.12204,-6.0956693 97.38418,3.250713 136.7444,23.127361 46.8645,23.666202 86.74114,63.691729 110.36177,110.773679 9.65841,19.25163 18.70894,46.52079 22.43857,67.60774 3.40443,19.24727 3.94247,58.66766 1.03355,75.73643 -1.76885,10.37995 -1.58223,11.73252 3.05548,22.15118 9.31034,20.91513 11.55096,32.12255 11.60678,58.05673 0.0603,28.34684 -2.41252,39.45876 -14.00299,62.90937 -39.91315,71.43243 -125.17165,94.77581 -187.05781,65.55725 z m -8.86108,-84.1931 c 59.80628,-12.23672 92.15526,-46.12855 92.15526,-96.55031 0,-37.00434 -16.92396,-63.31362 -51.00386,-79.28831 -14.13733,-6.62684 -19.4655,-8.04283 -95.64475,-25.41859 -23.54425,-5.37023 -40.46626,-13.33854 -45.96297,-21.64323 -5.63033,-8.50677 -4.91755,-23.74132 1.56947,-33.54313 14.94404,-22.58043 67.0644,-25.96277 96.72439,-6.27692 5.20837,3.45689 13.20869,10.63386 17.77852,15.94881 11.05651,12.85932 20.34026,18.21129 31.50345,18.16139 16.17804,-0.0723 31.048,-10.29128 31.88572,-22.24415 C 379.8316,123.24882 325.85733,98.911769 301.00997,92.149544 227.3726,78.72286 131.56835,100.49375 127.35136,179.24972 c -1.01389,27.56745 6.65379,47.48087 24.48477,63.58881 15.84113,14.31032 31.78913,20.55481 90.13812,35.2936 28.83821,7.28443 54.66153,14.09168 57.38543,15.12722 8.42973,3.20471 15.05303,8.8872 18.70734,16.04992 9.75907,19.12778 -2.73471,44.14402 -26.6233,53.30837 -14.02585,5.38068 -38.47376,6.46864 -54.90114,2.44315 -21.88634,-7.53328 -37.65357,-21.60487 -49.49588,-37.21222 -4.05288,-5.36771 -10.4777,-11.33059 -14.32004,-13.29071 -14.72127,-7.50971 -36.69711,-2.5555 -43.33495,9.76936 -4.31215,8.00663 -3.22277,25.29031 2.31328,36.70287 13.89612,28.64636 52.23218,50.2246 99.92093,56.24244 15.77202,1.9903 57.2114,0.96385 70.4511,-1.74507 z" id="path3146-9" style="fill:url(#linearGradient3010);fill-opacity:1"/></svg>