<svg viewBox="0 0 512 512" xml:space="preserve" xmlns="http://www.w3.org/2000/svg" enable-background="new 0 0 512 512"><path d="M361.335 156.683c24.337 24.438 53.393 34.911 64.793 23.514 11.397-11.397 78.958-118.593 54.625-142.929-24.335-24.437-131.532 43.229-142.93 54.625-11.502 11.397-.925 40.456 23.512 64.79z" fill="#f87171" class="fill-d30000"></path><path d="M443.583 171.777c3.388 11.603 2.771 21.254-2.773 26.799-20.844 20.844-89.845-27.722-112.228-71.978-18.482-33.164-11.398-54.83 15.297-50.004 5.854-3.696 12.632-7.803 20.127-11.91-30.598-15.916-65.305-24.951-102.165-24.951-122.291 0-221.375 99.084-221.375 221.375 0 122.188 99.084 221.375 221.375 221.375 122.29 0 221.376-99.084 221.376-221.375 0-39.429-10.37-76.497-28.444-108.633a695.24 695.24 0 0 1-11.19 19.302z" fill="#f87171" class="fill-d30000"></path><path d="M138.832 63.041C101.56 41.888 48.577 18.375 31.737 35.317c-17.045 17.044 7.291 71.258 28.647 108.531 18.996-33.062 46-60.888 78.448-80.807z" fill="#f87171" class="fill-d30000"></path></svg>